<svg xmlns="http://www.w3.org/2000/svg" xmlns:xlink="http://www.w3.org/1999/xlink" id="uuid-14911a65-ea78-48ff-abb4-366c487e6dc6" viewBox="0 0 366.361 140.523"><defs><linearGradient id="uuid-cf10c83b-9227-469c-b24f-e2d85d649a84" x1="0" y1="54.055" x2="98.253" y2="54.055" gradientUnits="userSpaceOnUse"><stop offset="0" stop-color="#2c81c3"></stop><stop offset="1" stop-color="#2f51a1"></stop></linearGradient><linearGradient id="uuid-613d846a-634b-468b-951f-f16301a68c71" x1="5.533" y1="81.762" x2="81.345" y2="81.762" xlink:href="#uuid-cf10c83b-9227-469c-b24f-e2d85d649a84"></linearGradient><linearGradient id="uuid-0025fa7a-e261-44d2-b1b3-d62f08e95354" x1="69.895" y1="42.785" x2="140.963" y2="42.785" xlink:href="#uuid-cf10c83b-9227-469c-b24f-e2d85d649a84"></linearGradient><linearGradient id="uuid-64276b36-9c79-4fc7-a21d-8745cde553a3" x1="132.716" y1="72.139" x2="163.329" y2="72.139" xlink:href="#uuid-cf10c83b-9227-469c-b24f-e2d85d649a84"></linearGradient><linearGradient id="uuid-f414be81-21eb-4c23-9585-ff6a0983b610" x1="169.164" y1="79.004" x2="197.031" y2="79.004" xlink:href="#uuid-cf10c83b-9227-469c-b24f-e2d85d649a84"></linearGradient><linearGradient id="uuid-57d450d8-79d1-4d29-a842-dff79986e54a" x1="204.857" y1="78.248" x2="224.693" y2="78.248" xlink:href="#uuid-cf10c83b-9227-469c-b24f-e2d85d649a84"></linearGradient><linearGradient id="uuid-cb58edda-db76-47aa-84f8-1ea44bc59259" x1="226.409" y1="78.66" x2="258.189" y2="78.66" xlink:href="#uuid-cf10c83b-9227-469c-b24f-e2d85d649a84"></linearGradient><linearGradient id="uuid-1f0495ab-f986-4450-a51a-74b5c0e904d3" x1="263.335" y1="78.66" x2="290.449" y2="78.66" xlink:href="#uuid-cf10c83b-9227-469c-b24f-e2d85d649a84"></linearGradient><linearGradient id="uuid-cc58c40e-d532-4525-8959-4af6c69ddccb" x1="296.213" y1="78.66" x2="317.765" y2="78.66" xlink:href="#uuid-cf10c83b-9227-469c-b24f-e2d85d649a84"></linearGradient><linearGradient id="uuid-d3bb19c0-4954-46ce-b1c0-d1f7db0cd8e7" x1="324.904" y1="71.796" x2="333.827" y2="71.796" xlink:href="#uuid-cf10c83b-9227-469c-b24f-e2d85d649a84"></linearGradient><linearGradient id="uuid-16335fb6-4e65-4309-a5bf-2f81d971c4d3" x1="339.249" y1="78.66" x2="366.361" y2="78.66" xlink:href="#uuid-cf10c83b-9227-469c-b24f-e2d85d649a84"></linearGradient><linearGradient id="uuid-2a57ade5-ac0c-4ef4-b9b3-841cbd5b6826" x1="202.096" y1="119.107" x2="222.651" y2="119.107" xlink:href="#uuid-cf10c83b-9227-469c-b24f-e2d85d649a84"></linearGradient><linearGradient id="uuid-b6e4b511-f948-485c-9980-7b36657471e9" x1="228.08" y1="122.44" x2="238.9" y2="122.44" xlink:href="#uuid-cf10c83b-9227-469c-b24f-e2d85d649a84"></linearGradient><linearGradient id="uuid-03d3fc2c-72a6-49b7-aec5-2053cd402ea1" x1="244.666" y1="118.92" x2="249.532" y2="118.92" xlink:href="#uuid-cf10c83b-9227-469c-b24f-e2d85d649a84"></linearGradient><linearGradient id="uuid-87fd3bef-9a25-46d1-a6b6-2fc119caff66" x1="257.171" y1="126.464" x2="273.719" y2="126.464" xlink:href="#uuid-cf10c83b-9227-469c-b24f-e2d85d649a84"></linearGradient><linearGradient id="uuid-606eb6e9-01dd-46eb-a0c6-6d547b63da78" x1="280.083" y1="122.664" x2="291.839" y2="122.664" xlink:href="#uuid-cf10c83b-9227-469c-b24f-e2d85d649a84"></linearGradient></defs><g><path d="M83.803,108.11c3.973-2.538,6.574-6.093,8.867-9.835,1.486-2.426,2.66-5.074,3.713-7.725,2.274-5.727,2.377-11.692,.837-17.548-1.416-5.382-4.23-10.234-7.912-14.375-3.661-4.117-7.648-7.983-11.783-11.631-3.015-2.66-6.419-4.915-9.797-7.127-7.007-4.588-14.048-9.131-21.201-13.489-4.118-2.509-8.495-4.591-12.728-6.913-4.948-2.714-9.963-5.324-14.774-8.264C13.432,7.787,8.012,4.087,2.556,.454,1.108-.51,.614,.171,.479,1.471-.155,7.561-.361,13.667,1.144,19.654c1.136,4.522,3.964,8.116,7.779,10.594,6.139,3.988,12.503,7.639,18.852,11.294,7.679,4.421,15.567,8.492,23.13,13.098,6.766,4.121,13.313,8.625,19.774,13.216,5.706,4.054,10.428,9.241,13.83,15.305,4.372,7.794,4.654,15.847-.437,23.642-.226,.346-.184,.867-.268,1.307Z" fill="url(#uuid-cf10c83b-9227-469c-b24f-e2d85d649a84)"></path><path d="M28.577,124.541c.627,.149,1.251,.417,1.881,.428,7.145,.121,14.32,.652,21.427,.179,8.6-.572,16.549-3.444,22.893-9.646,5.772-5.643,7.095-12.754,6.398-20.432-.718-7.913-5.348-13.555-10.879-18.743-7.72-7.241-16.591-12.806-25.746-17.959-4.115-2.316-8.413-4.307-12.598-6.502-5.347-2.804-10.681-5.633-15.986-8.514-2.813-1.527-5.562-3.172-8.325-4.791-1.357-.795-2.005-.298-2.058,1.12-.211,5.575,.207,11.158,2.025,16.4,1.275,3.674,4.314,6.377,7.634,8.447,5.086,3.169,10.212,6.289,15.455,9.188,7.838,4.334,15.826,8.405,22.951,13.904,4.501,3.474,8.658,7.474,10.291,12.956,2.459,8.259,.992,15.175-7.334,19.623-7.467,3.989-15.483,3.929-23.581,3.561-1.459-.066-2.923-.009-4.385-.009-.021,.263-.042,.526-.063,.789Z" fill="url(#uuid-613d846a-634b-468b-951f-f16301a68c71)"></path><path d="M104.642,72.183c.164-.495,.395-.978,.482-1.486,.625-3.647,1.271-7.292,1.814-10.952,1.056-7.127,4.202-13.236,9.617-17.886,3.763-3.231,8.285-5.412,13.158-6.737,3.368-.915,6.694-1.982,10.03-3.012,.359-.111,.655-.428,1.22-.812-.597-.33-.96-.61-1.371-.745-3.43-1.126-7.131-1.755-10.225-3.476-2.638-1.467-4.572-4.189-6.832-6.339-4.853-4.616-10.242-8.569-17.303-7.033-4.201,.914-8.281,2.975-12.044,5.157-5.732,3.325-11.097,7.276-16.716,10.804-1.921,1.206-4.141,1.939-6.576,3.048,1.756,1.402,3.221,2.754,4.86,3.849,6.78,4.529,12.94,9.739,18.329,15.877,4.151,4.728,7.427,9.993,10.053,15.669,.581,1.256,.709,2.721,1.046,4.09,.153-.006,.306-.012,.459-.018Z" fill="url(#uuid-0025fa7a-e261-44d2-b1b3-d62f08e95354)"></path></g><g><path d="M141.776,92.182h11.532c2.884,0,5.021-.091,6.418-.274,1.395-.183,2.597-.503,3.604-.962-.87,3.799-3.5,5.698-7.894,5.698h-18.944c-1.236-1.281-1.854-3.866-1.854-7.756V55.048c-.046-3.889-.686-6.361-1.922-7.414h21.004c4.484,0,7.161,1.9,8.031,5.698-1.008-.457-2.208-.778-3.604-.962-1.397-.182-3.536-.274-6.418-.274h-10.434c.138,.686,.206,1.648,.206,2.884v10.226h8.924c2.424,0,4.278,.447,5.56,1.339,1.28,.892,2.173,2.368,2.676,4.426-.96-.548-2.094-.903-3.398-1.064-1.304-.16-3.534-.24-6.692-.24h-7.07v19.014c0,1.556,.091,2.723,.274,3.5Z" fill="url(#uuid-64276b36-9c79-4fc7-a21d-8745cde553a3)"></path><path d="M197.031,96.644h-6.452c-.916-1.005-1.465-2.927-1.648-5.766-1.556,4.394-4.782,6.59-9.678,6.59-3.341,0-5.927-1.098-7.756-3.295-1.556-1.829-2.334-4.231-2.334-7.206v-26.426h6.452v26.358c0,1.877,.663,3.432,1.99,4.667,1.143,1.098,2.517,1.648,4.119,1.648s3.076-.584,4.426-1.75c1.349-1.168,2.232-2.619,2.643-4.358v-26.564h6.452v28.76c0,2.791,.594,5.239,1.784,7.344Z" fill="url(#uuid-f414be81-21eb-4c23-9585-ff6a0983b610)"></path><path d="M204.857,60.54h6.383v6.452c.915-2.517,2.037-4.335,3.364-5.458,1.327-1.12,3.02-1.682,5.08-1.682,1.967,0,3.638,.734,5.01,2.197l-2.128,5.972c-1.968-1.877-3.774-2.815-5.422-2.815-1.556,0-2.975,.779-4.256,2.334-1.098,1.374-1.648,2.952-1.648,4.736v16.817c0,2.746,.595,5.263,1.785,7.55h-6.384c-1.191-1.327-1.784-3.889-1.784-7.688v-28.416Z" fill="url(#uuid-57d450d8-79d1-4d29-a842-dff79986e54a)"></path><path d="M242.402,97.468c-5.354,0-9.496-2.06-12.424-6.178-2.38-3.339-3.57-7.504-3.57-12.492,0-6.04,1.601-10.799,4.804-14.278,2.837-3.111,6.521-4.668,11.052-4.668,5.17,0,9.243,2.038,12.218,6.11,2.47,3.432,3.706,7.711,3.706,12.836,0,5.674-1.603,10.273-4.804,13.796-2.884,3.25-6.545,4.874-10.982,4.874Zm8.374-18.808v-1.442c0-9.152-2.746-13.818-8.237-14.002-3.249-.091-5.628,1.671-7.138,5.286-1.053,2.563-1.578,5.812-1.578,9.746,0,4.256,.662,7.849,1.99,10.776,1.555,3.388,3.751,5.08,6.59,5.08,3.157,0,5.444-2.082,6.864-6.246,.868-2.515,1.372-5.582,1.51-9.198Z" fill="url(#uuid-cb58edda-db76-47aa-84f8-1ea44bc59259)"></path><path d="M290.449,96.644h-6.59c-.55-.64-.96-2.035-1.236-4.188-1.098,1.374-2.631,2.552-4.598,3.536-1.968,.984-3.822,1.476-5.56,1.476-2.975,0-5.286-.937-6.932-2.814-1.465-1.601-2.197-3.729-2.197-6.384,0-3.111,1.304-5.743,3.913-7.894,1.235-1.052,3.545-2.447,6.932-4.186,2.974-1.51,4.964-2.7,5.972-3.57,1.464-1.281,2.196-2.721,2.196-4.324,0-1.51-.514-2.746-1.544-3.706-1.03-.962-2.346-1.442-3.947-1.442-2.517,0-5.216,1.716-8.099,5.148l-1.991-4.6c3.111-2.562,6.681-3.844,10.708-3.844,4.073,0,7.002,.962,8.786,2.884,1.648,1.739,2.472,4.37,2.472,7.894v18.738c0,2.884,.572,5.309,1.716,7.276Zm-8.306-7.962v-14.072l-8.58,6.178c-2.47,1.877-3.706,4.233-3.706,7.07,0,1.968,.572,3.525,1.716,4.668,.96,.96,2.15,1.442,3.568,1.442,2.654,0,4.987-1.761,7.002-5.286Z" fill="url(#uuid-1f0495ab-f986-4450-a51a-74b5c0e904d3)"></path><path d="M296.213,94.242l2.06-4.394c1.966,2.838,4.369,4.256,7.206,4.256,1.784,0,3.317-.663,4.6-1.99,1.052-1.098,1.578-2.356,1.578-3.776,0-3.339-2.38-6.383-7.138-9.128-5.126-2.975-7.688-6.567-7.688-10.777,0-2.927,1.12-5.17,3.364-6.726,1.738-1.236,3.888-1.854,6.452-1.854,2.608,0,6.016,.985,10.226,2.952l-1.99,4.53c-2.427-2.745-4.874-4.118-7.344-4.118-3.02,0-4.53,1.397-4.53,4.188,0,2.196,1.876,4.392,5.628,6.588,6.085,3.662,9.128,7.551,9.128,11.669,0,3.752-1.419,6.794-4.255,9.128-2.197,1.785-4.668,2.678-7.414,2.678-3.799,0-7.093-1.075-9.884-3.226Z" fill="url(#uuid-cc58c40e-d532-4525-8959-4af6c69ddccb)"></path><path d="M328.816,54.5c-1.098,0-2.024-.355-2.78-1.065-.754-.708-1.132-1.612-1.132-2.71,0-1.053,.378-1.945,1.132-2.678,.756-.731,1.682-1.098,2.78-1.098,1.053,0,1.956,.367,2.712,1.098,.756,.732,1.132,1.625,1.132,2.678,0,1.007-.389,1.887-1.166,2.642-.779,.756-1.671,1.133-2.678,1.133Zm-3.294,34.182v-28.142h6.452v28.142c0,3.02,.618,5.674,1.854,7.962h-6.521c-1.189-1.327-1.784-3.982-1.784-7.962Z" fill="url(#uuid-d3bb19c0-4954-46ce-b1c0-d1f7db0cd8e7)"></path><path d="M366.361,96.644h-6.588c-.55-.64-.962-2.035-1.236-4.188-1.098,1.374-2.632,2.552-4.6,3.536s-3.821,1.476-5.56,1.476c-2.975,0-5.284-.937-6.932-2.814-1.465-1.601-2.196-3.729-2.196-6.384,0-3.111,1.304-5.743,3.912-7.894,1.236-1.052,3.545-2.447,6.932-4.186,2.975-1.51,4.965-2.7,5.972-3.57,1.464-1.281,2.196-2.721,2.196-4.324,0-1.51-.514-2.746-1.544-3.706-1.03-.962-2.345-1.442-3.946-1.442-2.517,0-5.216,1.716-8.1,5.148l-1.99-4.6c3.111-2.562,6.68-3.844,10.708-3.844,4.072,0,7,.962,8.786,2.884,1.647,1.739,2.47,4.37,2.47,7.894v18.738c0,2.884,.572,5.309,1.716,7.276Zm-8.304-7.962v-14.072l-8.58,6.178c-2.472,1.877-3.707,4.233-3.707,7.07,0,1.968,.572,3.525,1.716,4.668,.962,.96,2.151,1.442,3.57,1.442,2.653,0,4.987-1.761,7.002-5.286Z" fill="url(#uuid-16335fb6-4e65-4309-a5bf-2f81d971c4d3)"></path></g><g><path d="M214.152,109.935v18.195c0,1.648,.312,3.096,.936,4.344h-3.668c-.674-.698-1.012-2.108-1.012-4.23v-18.196c0-.724-.037-1.348-.112-1.872h-4.192c-1.348,0-2.422-.4-3.22-1.198-.351-.35-.612-.762-.787-1.236h16.212c1.248,0,2.21,.25,2.884,.748,.698,.5,1.185,1.286,1.46,2.359-.524-.274-1.155-.462-1.891-.562s-1.94-.15-3.612-.15h-3.07c.05,.224,.074,.574,.074,1.048v.75Z" fill="url(#uuid-2a57ade5-ac0c-4ef4-b9b3-841cbd5b6826)"></path><path d="M228.08,112.78h3.483v3.52c.497-1.372,1.109-2.364,1.833-2.976s1.648-.918,2.771-.918c1.072,0,1.984,.4,2.732,1.198l-1.16,3.258c-1.072-1.024-2.06-1.536-2.958-1.536-.849,0-1.622,.425-2.322,1.274-.598,.748-.897,1.61-.897,2.583v9.173c0,1.498,.323,2.87,.973,4.118h-3.482c-.65-.724-.974-2.121-.974-4.194v-15.5Z" fill="url(#uuid-b6e4b511-f948-485c-9980-7b36657471e9)"></path><path d="M246.8,109.486c-.6,0-1.104-.193-1.516-.58s-.618-.88-.618-1.48c0-.574,.206-1.06,.618-1.46,.412-.399,.916-.598,1.516-.598,.574,0,1.068,.2,1.48,.598,.412,.4,.617,.886,.617,1.46,0,.55-.212,1.03-.636,1.442s-.912,.618-1.46,.618Zm-1.796,18.644v-15.35h3.518v15.35c0,1.648,.338,3.096,1.01,4.344h-3.556c-.648-.724-.973-2.172-.973-4.344Z" fill="url(#uuid-03d3fc2c-72a6-49b7-aec5-2053cd402ea1)"></path><path d="M260.952,131.799v4.418c0,1.722,.312,3.158,.936,4.306h-3.781c-.225-.3-.388-.65-.487-1.048-.3-.824-.448-1.885-.448-3.183v-23.512h3.893v1.573c.4-.574,.992-1.042,1.779-1.404,.785-.362,1.628-.544,2.526-.544,2.895,0,5.104,1.211,6.626,3.632,1.148,1.822,1.723,3.982,1.723,6.476,0,2.946-.862,5.442-2.584,7.488-1.648,1.948-3.756,2.921-6.328,2.921-1.272,0-2.559-.375-3.856-1.124Zm0-15.388l-.037,9.622v2.846c.823,1.522,2.008,2.284,3.556,2.284,1.796,0,3.144-.886,4.044-2.658,.748-1.448,1.122-3.37,1.122-5.766,0-5.64-1.572-8.462-4.718-8.462-.824,0-1.616,.206-2.377,.618-.763,.412-1.292,.918-1.592,1.516Z" fill="url(#uuid-87fd3bef-9a25-46d1-a6b6-2fc119caff66)"></path><path d="M280.083,131.163l1.124-2.396c1.072,1.548,2.383,2.32,3.93,2.32,.974,0,1.81-.361,2.508-1.086,.574-.598,.862-1.285,.862-2.058,0-1.822-1.299-3.482-3.894-4.98-2.796-1.622-4.194-3.581-4.194-5.878,0-1.597,.612-2.82,1.835-3.668,.948-.674,2.121-1.012,3.518-1.012,1.422,0,3.282,.537,5.578,1.61l-1.085,2.472c-1.324-1.498-2.659-2.247-4.007-2.247-1.647,0-2.47,.762-2.47,2.284,0,1.198,1.023,2.396,3.07,3.594,3.32,1.998,4.98,4.119,4.98,6.365,0,2.046-.775,3.706-2.322,4.98-1.198,.973-2.546,1.46-4.043,1.46-2.073,0-3.871-.586-5.392-1.76Z" fill="url(#uuid-606eb6e9-01dd-46eb-a0c6-6d547b63da78)"></path></g></svg>