<svg xmlns:xlink="http://www.w3.org/1999/xlink" xmlns="http://www.w3.org/2000/svg" id="uuid-d312e41f-f4a0-400e-ade7-60aa57d76642" viewBox="0 0 285.204 265.702" width="285.204"  height="265.702" ><g id="uuid-de7aa4a5-019d-40cb-aaf9-8039182c040f"><g><path d="M153.022,139.32l11.764-8.227-6.562-57.282c-9.158,5.654-19.778,11.945-30.662,18.157l25.459,47.352ZM124.425,25.706L72.857,0l-11.751,8.217,35.744,39.974c9.59-8.091,19.14-15.876,27.575-22.485Z" fill="#FFFFFF"></path><path d="M285.203,146.437v-46.519h-72.15v16.407c0,3.683-2.984,6.669-6.664,6.669s-6.664-2.986-6.664-6.669v-16.407h-25.096l3.849,33.605c.279,2.433-.797,4.823-2.803,6.227l-21.158,14.795c-3.997,2.152-7.249,1.336-9.758-2.448l-27.542-54.304s-20.272,11.074-28.353,15.21l3.849,32.723c.287,2.439-.789,4.839-2.801,6.246l-11.793,8.247c-3.934,2.135-7.167,1.357-9.7-2.336l-13.813-26.001-27.23,3.845c-6.432-.547-8.647-3.892-6.646-10.034l13.628-22.739-2.717-3.035H0v46.297c15.441,5.287,26.153,19.886,26.153,36.594S15.44,214.118,0,219.405v46.297H199.726v-16.954c0-3.683,2.984-6.669,6.664-6.669s6.664,2.986,6.664,6.669v16.954h72.15v-46.519c-15.063-5.463-25.515-19.978-25.515-36.373,0-16.396,10.451-30.91,25.515-36.373h0Zm-231.38,22.667h88.628c3.68,0,6.664,2.986,6.664,6.669s-2.984,6.669-6.664,6.669H53.823c-3.68,0-6.664-2.986-6.664-6.669s2.984-6.669,6.664-6.669Zm114.144,51.722H53.823c-3.68,0-6.664-2.986-6.664-6.669s2.984-6.669,6.664-6.669h114.144c3.68,0,6.664,2.986,6.664,6.669s-2.984,6.669-6.664,6.669Zm45.086,.414c0,3.683-2.984,6.669-6.664,6.669s-6.664-2.986-6.664-6.669v-24.082c0-3.683,2.984-6.669,6.664-6.669s6.664,2.986,6.664,6.669v24.082Zm0-53.143c0,3.683-2.984,6.669-6.664,6.669s-6.664-2.986-6.664-6.669v-25.934c0-3.683,2.984-6.669,6.664-6.669s6.664,2.986,6.664,6.669v25.934Z" fill="#FFFFFF"></path><path d="M48.315,105.598l-8.971,14.97s18.647-2.611,18.956-2.611c2.438,0,4.714,1.341,5.882,3.539l12.472,23.477,2.358-1.649-3.926-33.385c-.328-2.785,1.121-5.477,3.625-6.738,34.457-17.336,75.822-42.113,90.311-52.244,8.894-6.134,29.32-20.636,19.741-34.302-6.409-9.141-19.552-6.858-39.066,6.788-14.416,9.942-51.874,40.142-80.21,66.798-2.037,1.916-5.053,2.356-7.552,1.101l-29.86-14.998-2.213,1.597,17.704,19.777c1.949,2.179,2.254,5.373,.751,7.881h0Z" fill="#FFFFFF"></path></g></g></svg>