<svg xmlns:xlink="http://www.w3.org/1999/xlink" xmlns="http://www.w3.org/2000/svg" id="uuid-fbe54d31-05df-4e3e-9410-957c42f3e77c" viewBox="0 0 264.241 264.25" width="264.241"  height="264.25" ><g id="uuid-b9259632-c208-4b40-b1cc-0b315a18c3b1"><g><path d="M132.12,8.808c4.262,0,8.522,.218,12.762,.652l.901-8.762c-12.146-1.246-24.405-.823-36.436,1.258l1.508,8.678c7.023-1.216,14.138-1.827,21.266-1.826ZM59.837,32.204l-5.169-7.132C20.307,49.901-.031,89.727,0,132.12c-.058,20.327,4.623,40.387,13.67,58.59l7.892-3.911c-8.442-16.988-12.809-35.709-12.754-54.679-.032-39.57,18.954-76.744,51.028-99.916Zm76.539,223.156l.297,8.802c12.391-.413,24.661-2.571,36.449-6.41l-2.732-8.374c-11.001,3.582-22.452,5.596-34.015,5.981h0Z" fill="#FFFFFF"></path><path d="M261.745,136.37l-79.375-38.18c-6.576-3.154-14.464-.389-17.633,6.18l-23.809,49.496v-43.766c-.014-12.155-9.864-22.006-22.02-22.02h-17.616V17.616C101.292,7.887,93.405,0,83.676,0s-17.616,7.887-17.616,17.616V88.08h-17.616c-12.155,.014-22.006,9.864-22.02,22.02v114.504c.011,9.264,5.81,17.534,14.517,20.701-3.164,6.576-.398,14.471,6.178,17.635s14.471,.398,17.635-6.178c1.526-3.172,1.724-6.821,.549-10.139h36.747c-2.433,6.879,1.17,14.428,8.049,16.861,6.879,2.433,14.428-1.17,16.861-8.049,1.173-3.315,.976-6.961-.548-10.131,7.034-2.567,12.29-8.521,13.964-15.819l62.19,29.914c2.189,1.055,4.819,.136,5.874-2.053,.001-.002,.002-.004,.003-.007l55.361-115.093c1.054-2.192,.132-4.823-2.059-5.878h0ZM52.848,255.431c-2.432,0-4.404-1.972-4.404-4.404s1.972-4.404,4.404-4.404,4.404,1.972,4.404,4.404c-.003,2.431-1.973,4.401-4.404,4.404Zm8.808-26.424h-8.808V127.716h8.808v101.292Zm26.424,0h-8.808V127.716h8.808v101.292Zm4.404-140.928h-17.616V17.616c0-4.865,3.943-8.808,8.808-8.808s8.808,3.943,8.808,8.808V88.08Zm13.212,39.636h8.808v101.292h-8.808V127.716Zm8.808,127.716c-2.432,0-4.404-1.972-4.404-4.404s1.972-4.404,4.404-4.404,4.404,1.972,4.404,4.404c-.003,2.431-1.973,4.401-4.404,4.404Zm87.911-5.878l-75.406-36.271c-2.192-1.055-3.114-3.686-2.059-5.878,0,0,0,0,0,0l42.326-87.995c1.057,1.065,2.288,1.942,3.64,2.592l75.406,36.271-43.907,91.281Z" fill="#FFFFFF"></path><path d="M161.673,161.538c-7.38,15.343-.925,33.764,14.418,41.144,15.343,7.38,33.764,.925,41.144-14.418,7.38-15.343,.925-33.764-14.418-41.144-15.194-7.433-33.536-1.141-40.968,14.053-.059,.121-.118,.243-.176,.365Zm21.756,27.403l-1.16,.898-.022-1.467c-.052-3.809,.536-7.6,1.741-11.214l7.115,3.422c-2.071,3.197-4.665,6.023-7.674,8.36Zm22.017-29.171c5.166,5.478,7.187,13.21,5.362,20.516l-7.896-3.798c1.764-4.867,2.631-10.015,2.558-15.192l-.024-1.526Zm1.544,28.453c-4.568,5.986-11.87,9.233-19.375,8.617l1.207-.934c4.09-3.174,7.571-7.064,10.272-11.481l7.896,3.798Zm-11.51-27.361l1.16-.898,.022,1.467c.052,3.809-.536,7.6-1.741,11.214l-7.115-3.422c2.071-3.197,4.665-6.023,7.674-8.36h0Zm-5.99-7.979c.599,0,1.2,.033,1.801,.083l-1.203,.931c-4.09,3.174-7.571,7.064-10.272,11.481l-7.887-3.794c4.176-5.48,10.671-8.698,17.561-8.701h0Zm-13.493,20.432c-1.764,4.868-2.631,10.015-2.557,15.192l.024,1.541c-5.178-5.478-7.201-13.221-5.365-20.532l7.899,3.8Zm-29.294,39.666l3.818-7.937,39.687,19.091-3.818,7.937-39.687-19.09ZM190.284,60.744c-5.372-5.359-14.068-5.359-19.44,0-1.93,1.925-5.054,1.925-6.984,0l-1.101-1.101c-12.065-12.037-31.597-12.037-43.662,0-2.381,2.394-5.62,3.736-8.997,3.727v8.808c5.714,.016,11.196-2.255,15.225-6.307,8.623-8.604,22.583-8.604,31.206,0l1.101,1.101c5.372,5.359,14.068,5.359,19.44,0,1.929-1.926,5.054-1.926,6.984,0l8.117,8.117c15.786,15.874,36.984,25.201,59.351,26.115,1.894,7.342,3.106,14.843,3.619,22.407l8.787-.599c-1.165-17.453-5.816-34.496-13.68-50.121l-7.87,3.954c2.496,4.971,4.651,10.106,6.451,15.37-19.059-1.512-36.948-9.796-50.43-23.354l-8.117-8.117Z" fill="#FFFFFF"></path><path d="M151.844,21.374l73.354,44.827c5.204,3.197,11.923,2.398,16.231-1.931l17.117-17.116c1.72-1.72,1.72-4.508,0-6.228,0,0,0,0,0,0l-8.808-8.808c-1.484-1.484-3.81-1.715-5.557-.55l-10.769,7.18-20.108-13.405,10.419-13.892c1.315-1.753,1.141-4.207-.409-5.757l-4.404-4.404c-1.341-1.34-3.388-1.673-5.084-.825l-24.262,12.13-8.153-4.892c-8.662-5.21-19.76-3.844-26.9,3.312l-3.486,3.486c-1.72,1.72-1.72,4.508,0,6.228,.246,.246,.521,.462,.818,.644h0Z" fill="#FFFFFF"></path></g></g></svg>