<svg xmlns:xlink="http://www.w3.org/1999/xlink" xmlns="http://www.w3.org/2000/svg" id="uuid-eea307df-61d1-4b30-b5ec-09c8f4a5fc5d" viewBox="0 0 281.01 217.682" width="281.01"  height="217.682" ><g id="uuid-9fde2bc6-9f39-4d6e-aaf5-6f4a633f92aa"><g><path d="M255.92,0H25.09C11.236,.006,.006,11.236,0,25.09V91.529H281.01V25.09c-.006-13.855-11.236-25.085-25.09-25.09ZM86.812,28.653l-18.818,45.162c-1.096,2.564-4.063,3.753-6.626,2.657-1.195-.511-2.146-1.462-2.657-2.657L39.893,28.653c-1.061-2.564,.151-5.502,2.71-6.574,2.541-1.057,5.458,.147,6.514,2.688,.003,.007,.006,.015,.009,.022l14.201,34.072,14.201-34.072c1.035-2.577,3.963-3.826,6.54-2.791,2.577,1.035,3.826,3.963,2.791,6.54-.015,.039-.031,.077-.048,.115Zm28.603,43.205c0,2.771-2.247,5.018-5.018,5.018s-5.018-2.247-5.018-5.018V26.696c0-2.771,2.247-5.018,5.018-5.018s5.018,2.247,5.018,5.018v45.162Zm38.237-24.588c9.007,0,16.309,7.302,16.309,16.309s-7.302,16.309-16.309,16.309h-11.491c-2.771,0-5.018-2.247-5.018-5.018s2.247-5.018,5.018-5.018h11.491c3.464,0,6.273-2.808,6.273-6.273s-2.808-6.273-6.273-6.273c-9.007,0-16.309-7.302-16.309-16.309s7.302-16.309,16.309-16.309h11.491c2.771,0,5.018,2.247,5.018,5.018s-2.247,5.018-5.018,5.018h-11.491c-3.348-.006-6.066,2.704-6.072,6.052,0,.007,0,.013,0,.02-.156,3.416,2.487,6.312,5.904,6.468,.056,.003,.112,.004,.168,.005h0Zm85.106,31.262c-.706,.333-1.478,.504-2.258,.502-1.905,.005-3.652-1.062-4.516-2.76l-6.774-13.549h-22.631l-6.774,13.549c-1.244,2.468-4.243,3.475-6.724,2.258-2.464-1.273-3.465-4.277-2.258-6.774l22.581-45.162c1.511-2.48,4.747-3.266,7.227-1.755,.717,.437,1.319,1.038,1.755,1.755l22.581,45.162c1.252,2.481,.266,5.508-2.208,6.774h0ZM0,101.565v91.027c.006,13.855,11.236,25.085,25.09,25.09H255.92c13.855-.006,25.085-11.236,25.09-25.09V101.565H0Zm131.523,13.699h113.357c2.771,0,5.018,2.247,5.018,5.018s-2.247,5.018-5.018,5.018h-113.357c-2.771,0-5.018-2.247-5.018-5.018s2.247-5.018,5.018-5.018Zm0,22.882h113.357c2.771,0,5.018,2.247,5.018,5.018s-2.247,5.018-5.018,5.018h-113.357c-2.771,0-5.018-2.247-5.018-5.018s2.247-5.018,5.018-5.018Zm0,22.882h113.357c2.771,0,5.018,2.247,5.018,5.018s-2.247,5.018-5.018,5.018h-113.357c-2.771,0-5.018-2.247-5.018-5.018s2.247-5.018,5.018-5.018Zm0,22.882h113.357c2.771,0,5.018,2.247,5.018,5.018s-2.247,5.018-5.018,5.018h-113.357c-2.771,0-5.018-2.247-5.018-5.018s2.247-5.018,5.018-5.018ZM20.724,127.358c.025-8.304,6.75-15.029,15.054-15.054h54.546c8.304,.025,15.029,6.75,15.054,15.054v54.546c-.025,8.304-6.75,15.029-15.054,15.054H35.779c-8.304-.025-15.029-6.75-15.054-15.054v-54.546Z" fill="#FFFFFF"></path><path d="M207.596,52.689h12.595l-6.273-12.595-6.323,12.595Z" fill="#FFFFFF"></path><rect x="30.761" y="122.34" width="64.582" height="64.582" rx="5.018" ry="5.018" fill="#FFFFFF"></rect></g></g></svg>