<svg xmlns:xlink="http://www.w3.org/1999/xlink" xmlns="http://www.w3.org/2000/svg" id="uuid-b78ec675-a623-4ca9-903b-b1d69ed5c380" viewBox="0 0 286.194 286.188" width="286.194"  height="286.188" ><g id="uuid-a979cea8-4ff6-4bbf-9d9d-b22a3824c457"><g><path d="M169.928,0H32.793C14.667,0,0,14.667,0,32.793V217.626c0,18.126,14.667,32.793,32.793,32.793h97.187c-10.017-15.86-16.695-34.582-16.695-56.046v-29.096c-1.789,1.073-3.816,1.669-5.962,1.669H47.699c-6.559,0-11.925-5.366-11.925-11.925s5.366-11.925,11.925-11.925h59.624c2.266,0,4.293,.596,6.082,1.669,.477-10.136,5.247-19.437,12.759-25.519H47.699c-6.559,0-11.925-5.366-11.925-11.925s5.366-11.925,11.925-11.925h107.323c5.008,0,9.301,3.1,11.09,7.513l33.986-11.567c.835-.358,1.669-.596,2.623-.715V32.793c0-18.126-14.667-32.793-32.793-32.793ZM95.398,71.548H47.699c-6.559,0-11.925-5.366-11.925-11.925s5.366-11.925,11.925-11.925h47.699c6.559,0,11.925,5.366,11.925,11.925s-5.366,11.925-11.925,11.925Z" fill="#FFFFFF"></path><path d="M278.109,135.215l-62.605-21.298c-2.494-.847-5.198-.847-7.691,0l-62.605,21.298c-4.833,1.648-8.083,6.187-8.085,11.293v47.914c0,60.423,67.005,89.614,69.855,90.831,2.995,1.253,6.369,1.249,9.361-.012,2.85-1.216,69.855-30.396,69.855-90.819v-47.914c.005-5.108-3.248-9.651-8.085-11.293h0Zm-24.112,44.849l-35.774,47.699c-2.247,3.009-5.785,4.777-9.54,4.77-3.164,.006-6.199-1.252-8.431-3.494l-23.849-23.849c-4.656-4.656-4.656-12.205,0-16.862,4.656-4.656,12.205-4.656,16.862,0l14.131,14.131,27.522-36.704c3.952-5.269,11.426-6.336,16.695-2.385,5.269,3.952,6.336,11.426,2.385,16.695h0Z" fill="#FFFFFF"></path></g></g></svg>