<svg xmlns:xlink="http://www.w3.org/1999/xlink" xmlns="http://www.w3.org/2000/svg" id="uuid-a95dfc7a-d668-4153-b194-a9622c41c6e9" viewBox="0 0 275.198 283.641" width="275.198"  height="283.641" ><g id="uuid-710c781f-ee2e-4201-95d2-5dfc516c7b34"><g><path d="M202.995,217.301c-2.359-1.113-5.174-.109-6.297,2.246-.605,1.272-1.248,2.51-1.924,3.735-1.269,2.282-.448,5.16,1.834,6.429s5.16,.448,6.429-1.834c.78-1.399,1.513-2.827,2.203-4.278,1.119-2.359,.113-5.178-2.246-6.297Z" fill="#FFFFFF"></path><path d="M227.161,149.476c-5.957-14.466-15.459-27.325-27.892-37.583V60.742l8.746-3.64v48.267c0,2.647,2.127,4.727,4.727,4.727,2.647,0,4.727-2.08,4.727-4.727V53.178l14.088-5.815c1.749-.756,2.931-2.458,2.931-4.397,0-1.891-1.182-3.64-2.931-4.349L139.42,.372c-1.163-.497-2.478-.497-3.64,0L43.689,38.618c-2.415,.992-3.569,3.754-2.577,6.169,.48,1.169,1.408,2.097,2.577,2.577l32.288,13.379v39.852c-39.474-.378-67.082,11.582-74.221,32.383-7.186,21.132,7.942,47.984,40.42,72.094,6.902,35.55,33.234,64.199,67.461,74.457,.284,.142,.567,.189,.851,.236,8.557,2.458,17.586,3.877,26.946,3.877,24.914,0,47.984-9.597,65.428-25.528,37.914-.331,63.584-12.102,70.534-32.383,7.706-22.55-9.597-51.009-46.234-76.254h0Zm-8.651,3.782c.047,.284,.189,.52,.284,.756,4.066,10.211,6.24,21.179,6.24,32.572,0,4.066-.378,8.178-.945,12.244-3.356-1.749-5.531-6.382-9.266-15.695l-.945-2.411c-4.586-11.157-15.695-16.546-22.834-14.419-3.971,1.182-6.098,4.68-5.295,8.651,.473,2.269,1.466,4.397,2.506,6.618,2.364,4.917,4.538,9.597,1.796,16.735-3.687,9.597-44.06,29.121-53.231,29.688-.898-3.782,.993-14.986,1.986-20.612,1.276-7.517,2.033-12.244,1.607-15.364-.993-6.76-8.415-10.589-14.419-13.71-1.56-.804-3.64-1.891-4.444-2.506-.851-2.6-.047-11.488,2.364-13.662,1.324-.851,7.091-1.607,10.873-2.08,10.069-1.229,20.47-2.553,20.47-10.448,0-1.796-.756-3.498-2.08-4.775-3.782-3.687-11.913-3.64-24.866-3.12-2.931,.095-6.666,.236-8.746,.142-.047-.218-.047-.444,0-.662,.284-1.749,2.269-3.924,5.389-5.862,7.186-4.491,14.513-11.015,19.052-16.782h48.504c11.63,9.408,20.47,21.321,26.001,34.699h0ZM57.824,42.967L137.576,9.827l79.847,33.139-5.342,2.222-74.126-8.273c-2.6-.284-4.917,1.56-5.2,4.16s1.56,4.964,4.16,5.247l57.108,6.382-1.182,.473c-.032,0-.063,.016-.095,.047l-55.169,22.881-25.765-10.684-53.987-22.455Zm21.983,77.814c2.884,.331,8.368,1.56,8.888,5.909,.804,6.571-4.538,14.939-15.79,24.866-2.458,2.127-4.964,4.68-7.375,7.138-4.538,4.586-9.833,10.022-14.088,11.63,3.593-19.193,13.52-36.543,28.365-49.544h0Zm-38.623,53.467c-.52,3.877-.804,8.037-.804,12.339,0,1.04,.142,2.08,.142,3.12-.117,.695-.068,1.407,.142,2.08v.095c-24.11-19.808-35.267-40.278-29.925-55.878,5.72-16.782,29.925-26.237,65.239-25.954v1.513c-.284,.236-.615,.473-.898,.709l-.236,.236c-.047,0-.047,.047-.095,.047-18.626,15.79-30.539,37.678-33.565,61.693Zm9.029,19.477c6.288-2.033,12.575-3.356,13.993-3.026,.756,.709,2.08,3.971,2.978,6.193,2.316,5.72,4.917,12.197,10.589,14.702,2.411,1.04,5.295,1.749,8.368,2.506,5.247,1.324,12.433,3.12,13.379,6.382,.52,1.749,.189,3.498-.567,5.72-17.87-7.564-34.179-16.546-48.031-26.474-.284-1.986-.567-3.971-.709-6.004h0Zm3.782,19.524c12.575,8.131,26.616,15.506,41.791,21.888-.662,2.553-.993,5.389-.331,8.462,1.087,5.011,3.829,12.102,6.477,19.004,.662,1.607,1.276,3.262,1.891,4.869-23.73-9.932-41.932-29.741-49.827-54.224Zm83.439,60.937c-7.706,0-15.128-1.087-22.266-2.978-1.087-3.404-2.695-7.611-4.397-12.008-2.411-6.24-5.153-13.284-6.051-17.586-.189-.945-.142-1.938,0-2.931,3.687,1.418,7.422,2.789,11.204,4.113,13.568,4.633,27.183,8.226,40.467,10.779-5.673,1.607-11.535,2.553-17.492,2.553-2.647,0-4.727,2.08-4.727,4.727,0,2.6,2.08,4.727,4.727,4.727,12.48,0,24.583-3.309,35.314-9.171,4.775,.567,9.549,1.04,14.182,1.324-14.466,10.353-32.147,16.452-50.962,16.452Zm61.74-25.528c-4.207-.047-8.557-.236-12.906-.567,2.884-2.458,5.673-5.058,8.226-7.989,1.697-1.98,1.468-4.962-.512-6.659-.003-.002-.005-.004-.008-.006-1.969-1.71-4.952-1.5-6.662,.469-.001,.001-.002,.003-.003,.004-4.349,5.058-9.455,9.313-15.033,12.764-17.208-2.364-35.219-6.666-53.326-12.859-3.782-1.276-7.517-2.647-11.204-4.066,1.276-3.498,2.175-7.517,.851-11.96-2.506-8.415-12.291-10.873-20.139-12.859-2.695-.662-5.2-1.276-6.902-2.033-2.127-.898-4.16-5.909-5.578-9.549-1.986-4.869-3.687-9.124-7.28-10.968-4.113-2.08-12.055-.52-18.768,1.513,.047-1.229,.047-2.506,.142-3.687,7.989-.52,15.459-8.037,22.172-14.891,2.411-2.411,4.68-4.727,6.902-6.666,8.888-7.8,20.517-19.761,18.957-33.092-.378-2.836-1.371-5.106-2.789-6.997h35.834c-3.448,3.265-7.2,6.193-11.204,8.746-5.72,3.593-8.982,7.753-9.691,12.433-.567,3.356,.378,6.713,2.458,9.219,2.269,2.742,6.004,2.6,15.931,2.222,.615-.047,1.229-.047,1.938-.095-6.288,.851-10.448,1.702-12.906,3.971-6.335,5.72-7.233,20.99-4.113,25.906,1.466,2.316,4.255,3.735,8.131,5.767,2.695,1.371,9.077,4.68,9.36,6.571,.236,1.844-.756,7.753-1.56,12.48-2.742,15.884-3.971,25.812,1.466,30.114,1.324,1.04,2.978,1.513,5.153,1.513,2.033,0,4.444-.378,7.469-1.229,16.121-4.491,50.536-22.124,55.264-34.463,4.255-10.92,.473-18.91-2.033-24.205-.331-.662-.615-1.324-.898-1.938,2.647,.756,6.949,3.167,9.171,8.746l.945,2.316c4.066,10.022,7.706,18.863,16.215,21.604-3.892,15.312-11.865,29.282-23.07,40.42Zm65.239-25.954c-4.917,14.419-24.11,23.685-52.191,25.623,10.022-12.102,17.255-26.71,20.423-42.972,1.229-6.193,1.844-12.48,1.844-18.768,0-7.422-.851-14.75-2.458-21.794,25.623,20.328,37.867,41.838,32.383,57.911h0Z" fill="#FFFFFF"></path></g></g></svg>