<svg xmlns:xlink="http://www.w3.org/1999/xlink" xmlns="http://www.w3.org/2000/svg" id="uuid-0aeb1b14-3ee3-4d26-acb0-396f5ba925dc" viewBox="0 0 270.063 287.301" width="270.063"  height="287.301" ><g id="uuid-c048624d-cab0-4120-8d76-5d1d3d4deb00"><g><path d="M191.055,267.19h-57.28c-2.36,0-4.418-1.819-4.488-4.177-.073-2.379,1.796-4.367,4.175-4.44,.044-.001,.088-.002,.132-.002h31.262c1.323,0,2.154-1.43,1.497-2.579l-4.1-7.176c-.614-1.074-1.756-1.737-2.993-1.737h-48.457c-1.237,0-2.379,.663-2.993,1.737l-4.1,7.176c-.657,1.149,.173,2.579,1.497,2.579h8.098c2.36,0,4.418,1.819,4.488,4.177,.073,2.379-1.796,4.367-4.175,4.44-.044,.001-.088,.002-.132,.002h-34.476c-5.554,0-10.056,4.502-10.056,10.056s4.502,10.056,10.056,10.056h112.047c5.554,0,10.056-4.502,10.056-10.056-.001-5.554-4.503-10.056-10.057-10.056ZM0,222.658c0,8.727,7.074,15.802,15.802,15.802H254.261c8.727,0,15.802-7.075,15.802-15.802v-12.354c0-1.904-1.544-3.448-3.448-3.448H3.448c-1.904,0-3.448,1.544-3.448,3.448v12.354Zm114.92-4.31h40.222c2.38,0,4.31,1.929,4.31,4.31s-1.93,4.31-4.31,4.31h-40.222c-2.38,0-4.31-1.929-4.31-4.31s1.93-4.31,4.31-4.31Zm-15.802-71.825c-3.168,0-5.746,2.578-5.746,5.746v20.111c0,3.168,2.578,5.746,5.746,5.746s5.746-2.578,5.746-5.746v-20.111c0-3.168-2.578-5.746-5.746-5.746Zm10.519-53.542l7.111,7.11c2.984,2.984,6.953,4.629,11.174,4.629s8.189-1.644,11.173-4.628l21.331-21.332c1.085-1.085,1.683-2.528,1.683-4.062s-.598-2.978-1.683-4.062c-1.085-1.086-2.528-1.684-4.063-1.684s-2.978,.598-4.063,1.683l-21.332,21.332c-1.683,1.683-4.412,1.683-6.095,0h0s-7.11-7.111-7.11-7.111c-2.239-2.239-5.886-2.24-8.126,0-2.24,2.24-2.24,5.886,0,8.126h0ZM249.952,5.746c0-3.174-2.572-5.746-5.746-5.746H25.857c-3.174,0-5.746,2.572-5.746,5.746v31.058c0,1.904,1.544,3.448,3.448,3.448H246.504c1.904,0,3.448-1.544,3.448-3.448V5.746ZM35.913,28.73c-2.38,0-4.31-1.929-4.31-4.31s1.929-4.31,4.31-4.31,4.31,1.929,4.31,4.31-1.929,4.31-4.31,4.31Zm20.111,0c-2.38,0-4.31-1.929-4.31-4.31s1.929-4.31,4.31-4.31,4.31,1.929,4.31,4.31-1.929,4.31-4.31,4.31h0Zm20.111,0c-2.38,0-4.31-1.929-4.31-4.31s1.929-4.31,4.31-4.31,4.31,1.929,4.31,4.31-1.929,4.31-4.31,4.31Z" fill="#FFFFFF"></path><path d="M258.571,51.964v101.562c0,2.36-1.818,4.418-4.177,4.488-2.379,.073-4.367-1.796-4.44-4.175-.001-.044-.002-.089-.002-.133V52.318c0-1.904-1.544-3.448-3.448-3.448H23.559c-1.904,0-3.448,1.544-3.448,3.448v22.2c0,2.36-1.818,4.418-4.177,4.488-2.379,.073-4.367-1.796-4.44-4.175-.001-.044-.002-.089-.002-.133v-22.735c0-1.264-1.319-2.106-2.46-1.563-5.335,2.54-9.032,7.981-9.032,14.272V194.79c0,1.904,1.544,3.448,3.448,3.448h4.597c1.904,0,3.448-1.544,3.448-3.448V94.99c0-2.36,1.818-4.418,4.177-4.488,2.379-.073,4.367,1.796,4.44,4.175,.001,.044,.002,.089,.002,.133v99.981c0,1.904,1.544,3.448,3.448,3.448H246.504c1.904,0,3.448-1.544,3.448-3.448v-20.793c0-2.36,1.818-4.418,4.177-4.488,2.379-.073,4.367,1.796,4.44,4.175,.001,.044,.002,.089,.002,.133v20.973c0,1.904,1.544,3.448,3.448,3.448h4.597c1.904,0,3.448-1.544,3.448-3.448V64.672c0-6.291-3.698-11.732-9.032-14.272-1.141-.543-2.46,.3-2.46,1.563Zm-155.028,26.798c5.602-5.601,14.714-5.601,20.316,0l2.844,2.844c.673,.673,1.765,.673,2.438,0h0s16.853-16.853,16.853-16.853c2.631-2.631,6.135-4.281,9.853-4.411,4.029-.14,7.84,1.364,10.674,4.199,5.601,5.601,5.601,14.713,0,20.314l-21.331,21.331c-4.612,4.612-10.745,7.153-17.268,7.153s-12.656-2.54-17.268-7.153l-7.111-7.11c-5.601-5.6-5.601-14.714,0-20.315Zm-30.281,103.675c0,2.38-1.929,4.31-4.309,4.31-.044,0-.089,0-.133-.002-2.359-.071-4.177-2.128-4.177-4.488v-13.897c0-.952-.772-1.724-1.724-1.724h-8.044c-.952,0-1.724,.772-1.724,1.724v13.897c0,2.36-1.818,4.418-4.177,4.488-2.379,.073-4.367-1.796-4.44-4.175-.001-.044-.002-.089-.002-.133v-40.042c0-2.36,1.818-4.418,4.177-4.488,2.379-.073,4.367,1.796,4.44,4.175,.001,.044,.002,.089,.002,.133v14.078c0,.952,.772,1.724,1.724,1.724h8.044c.952,0,1.724-.772,1.724-1.724v-13.897c0-2.36,1.818-4.418,4.177-4.488,2.379-.073,4.367,1.796,4.44,4.175,.001,.044,.002,.089,.002,.133v40.222Zm40.222-10.056c0,7.921-6.444,14.365-14.365,14.365s-14.365-6.444-14.365-14.365v-20.111c0-7.921,6.444-14.365,14.365-14.365s14.365,6.444,14.365,14.365v20.111Zm35.732-25.857h-3.842c-.952,0-1.724,.772-1.724,1.724v34.008c0,2.36-1.818,4.418-4.177,4.488-2.379,.073-4.367-1.796-4.44-4.175-.001-.044-.002-.089-.002-.133v-34.189c0-.952-.772-1.724-1.724-1.724h-3.842c-2.36,0-4.418-1.819-4.488-4.177-.073-2.379,1.796-4.367,4.175-4.44,.044-.001,.088-.002,.132-.002h20.111c2.38,0,4.31,1.929,4.31,4.309,0,.044,0,.088-.002,.132-.071,2.359-2.128,4.177-4.488,4.177Zm34.944,11.492c2.38,0,4.31,1.929,4.31,4.309,0,.044,0,.088-.002,.132-.071,2.359-2.128,4.177-4.488,4.177h-8.439c-.952,0-1.724,.772-1.724,1.724v8.044c0,.952,.772,1.724,1.724,1.724h9.875c2.36,0,4.418,1.819,4.488,4.177,.073,2.379-1.796,4.367-4.175,4.44-.044,.001-.088,.002-.132,.002h-16.089c-2.38,0-4.31-1.929-4.31-4.31h0v-40.222c0-2.38,1.929-4.31,4.31-4.31h15.908c2.36,0,4.418,1.819,4.488,4.177,.073,2.379-1.796,4.367-4.175,4.44-.044,.001-.088,.002-.132,.002h-10.056c-.952,0-1.724,.772-1.724,1.724v8.044c0,.952,.772,1.724,1.724,1.724h8.619Zm37.062,28.73h-15.514c-2.38,0-4.31-1.929-4.31-4.31h0v-40.042c0-2.36,1.818-4.418,4.177-4.488,2.379-.073,4.367,1.796,4.44,4.175,.001,.044,.002,.089,.002,.133v34.189c0,.952,.772,1.724,1.724,1.724h9.301c2.36,0,4.418,1.819,4.488,4.177,.073,2.379-1.796,4.367-4.175,4.44-.044,.001-.088,.002-.132,.002Z" fill="#FFFFFF"></path></g></g></svg>